<?xml version='1.0' encoding='utf-8'?>
<!DOCTYPE svg PUBLIC '-//W3C//DTD SVG 1.1//EN' 'http://www.w3.org/Graphics/SVG/1.1/DTD/svg11.dtd'>
<svg version="1.1" xmlns="http://www.w3.org/2000/svg" viewBox="0 0 512 512" xmlns:xlink="http://www.w3.org/1999/xlink" enable-background="new 0 0 512 512">
  <g>
    <path d="m402.5,259.7c-6.4-32.4-23.5-62-48.6-83.9-5.5-4.8-11.2-9.1-17.2-13 0-1.5-0.1-2.9-0.4-4.4-2.5-12.2-6.5-23.9-11.7-34.9l8.7-5.8c9.4-6.2 11.9-18.9 5.7-28.3-6.2-9.4-18.9-12-28.3-5.7l-8.4,5.6c-17.2-19.9-39.1-34.8-63.8-43.5l2.1-10.3c2.2-11-4.9-21.8-15.9-24.1-11.1-2.3-21.8,4.9-24.1,15.9l-2.1,10.2c-26.1-1.8-52,3.2-75.5,14.7l-5.6-8.6c-6.2-9.4-18.8-12.1-28.2-5.9-9.6,6.2-12.2,18.9-6,28.3l5.8,8.8c-20.2,17.7-34.8,40.1-43.2,64.5l-10-2.1c-11-2.3-21.8,4.8-24.1,15.9-2.3,11 4.8,21.8 15.8,24.1l10.1,2.1c-1.5,21.2 1.4,42.7 9,63.3l-13.3,8.8c-9.4,6.3-11.9,18.9-5.7,28.3 3.9,5.9 10.4,9.1 17,9.1 2.9,0 5.9-0.6 8.7-2-4.4,3.8-8.6,8-12.5,12.4-19.4,22.3-30.1,50.9-29.9,80.5 0.2,66.9 55.4,121.3 122.8,121.3h244.2c32.4,0 63.1-12.7 86.4-35.6 23.5-23.1 36.5-53.7 36.5-86.1 5.68434e-14-58.5-41.7-108.6-98.3-119.6zm-274.9-163.2c24.5-16.3 53.9-22.1 82.7-16.2 29,5.9 53.9,22.9 70.1,47.8 3,4.6 5.6,9.4 7.9,14.3-10.8-2.5-22-3.7-33.2-3.7-36.4,0-71.5,13.2-98.8,37.1-25.1,22-42.2,51.6-48.6,84.2-1.4,0.3-2.9,0.6-4.3,1-2.6-3.1-5-6.4-7.2-9.8-33.5-51.4-19.5-120.8 31.4-154.7zm308.1,339.6c-15.7,15.4-36.2,23.9-57.8,23.9h-244.2c-45,0-81.7-36-81.9-80.4-0.2-40.2 29.6-74.7 69.2-80.3 13.4-1.9 24.1-12.5 26-25.9 7.6-53.4 54.1-93.7 108.1-93.7 53.9,0 100.4,40.2 108.1,93.5 2,13.5 12.8,24.2 26.4,25.9 40,5.2 70.2,39.6 70.2,80 0.1,21.4-8.5,41.6-24.1,57z"/>
  </g>
</svg>
