<?xml version="1.0" encoding="iso-8859-1"?>
<!-- Generator: Adobe Illustrator 19.0.0, SVG Export Plug-In . SVG Version: 6.00 Build 0)  -->
<svg version="1.1" id="Layer_1" xmlns="http://www.w3.org/2000/svg" xmlns:xlink="http://www.w3.org/1999/xlink" x="0px" y="0px"
	 viewBox="0 0 485 485" style="enable-background:new 0 0 485 485;" xml:space="preserve">
<path d="M485,214.04c0-39.199-28.706-71.819-66.201-77.947c-11.772-51.31-57.695-88.639-111.478-88.639
	c-48.103,0-90.978,30.346-107.367,74.864c-55.911,12.776-100.346,57.227-112.082,114.524C38.375,243.191,0,285.59,0,336.783
	c0,55.561,45.202,100.763,100.763,100.763h264.601c55.561,0,100.763-45.202,100.763-100.763c0-20.852-6.369-40.242-17.261-56.334
	C471.077,266.202,485,241.528,485,214.04z M307.322,77.454c42.764,0,78.789,31.97,83.798,74.366l1.564,13.24h13.332
	c27.01,0,48.984,21.973,48.984,48.98c0,18.897-10.598,35.657-27.05,43.832c-14.023-11.145-31.071-18.641-49.695-21.031
	c-13.858-67.654-73.302-117.397-143.4-118.233C249.82,93.616,277.171,77.454,307.322,77.454z M365.364,407.546H100.763
	C61.744,407.546,30,375.802,30,336.783s31.746-70.763,70.768-70.763H114.1l1.564-13.24c7.018-59.399,57.489-104.191,117.399-104.191
	s110.381,44.792,117.399,104.191l1.564,13.24h13.332c39.021,0,70.768,31.744,70.768,70.763S404.383,407.546,365.364,407.546z"/>
<g>
</g>
<g>
</g>
<g>
</g>
<g>
</g>
<g>
</g>
<g>
</g>
<g>
</g>
<g>
</g>
<g>
</g>
<g>
</g>
<g>
</g>
<g>
</g>
<g>
</g>
<g>
</g>
<g>
</g>
</svg>
